REM DIRINDEX 1\2,1\3
REM DIRNAME cjc039,folder01,folder02
TITLE ""
FILE "1721-1740.mp3" MP3
  TRACK 01 AUDIO
    TITLE "0:"
    INDEX 01 00:00:00
  TRACK 02 AUDIO
    TITLE "2:cjc039_2441"
    INDEX 01 00:00:27
  TRACK 03 AUDIO
    TITLE "0:"
    INDEX 01 00:01:38
  TRACK 04 AUDIO
    TITLE "3:cjc039_2442"
    INDEX 01 00:02:20
  TRACK 05 AUDIO
    TITLE "0:"
    INDEX 01 00:05:59
  TRACK 06 AUDIO
    TITLE "2:cjc039_2443"
    INDEX 01 00:07:39
  TRACK 07 AUDIO
    TITLE "0:"
    INDEX 01 00:08:50
  TRACK 08 AUDIO
    TITLE "3:cjc039_2444"
    INDEX 01 00:09:32
  TRACK 09 AUDIO
    TITLE "0:"
    INDEX 01 00:13:30
  TRACK 10 AUDIO
    TITLE "2:cjc039_2445"
    INDEX 01 00:15:05
  TRACK 11 AUDIO
    TITLE "0:"
    INDEX 01 00:16:06
  TRACK 12 AUDIO
    TITLE "3:cjc039_2446"
    INDEX 01 00:16:61
  TRACK 13 AUDIO
    TITLE "0:"
    INDEX 01 00:21:02
  TRACK 14 AUDIO
    TITLE "2:cjc039_2447"
    INDEX 01 00:22:54
  TRACK 15 AUDIO
    TITLE "0:"
    INDEX 01 00:24:24
  TRACK 16 AUDIO
    TITLE "3:cjc039_2448"
    INDEX 01 00:24:74
  TRACK 17 AUDIO
    TITLE "0:"
    INDEX 01 00:28:57
  TRACK 18 AUDIO
    TITLE "2:cjc039_2449"
    INDEX 01 00:30:32
  TRACK 19 AUDIO
    TITLE "0:"
    INDEX 01 00:31:35
  TRACK 20 AUDIO
    TITLE "3:cjc039_2450"
    INDEX 01 00:32:13
  TRACK 21 AUDIO
    TITLE "0:"
    INDEX 01 00:35:08
  TRACK 22 AUDIO
    TITLE "2:cjc039_2451"
    INDEX 01 00:36:58
  TRACK 23 AUDIO
    TITLE "0:"
    INDEX 01 00:38:08
  TRACK 24 AUDIO
    TITLE "3:cjc039_2452"
    INDEX 01 00:38:63
  TRACK 25 AUDIO
    TITLE "0:"
    INDEX 01 00:42:59
  TRACK 26 AUDIO
    TITLE "2:cjc039_2453"
    INDEX 01 00:44:42
  TRACK 27 AUDIO
    TITLE "0:"
    INDEX 01 00:45:63
  TRACK 28 AUDIO
    TITLE "3:cjc039_2454"
    INDEX 01 00:46:37
  TRACK 29 AUDIO
    TITLE "0:"
    INDEX 01 00:50:35
  TRACK 30 AUDIO
    TITLE "2:cjc039_2455"
    INDEX 01 00:52:08
  TRACK 31 AUDIO
    TITLE "0:"
    INDEX 01 00:55:14
  TRACK 32 AUDIO
    TITLE "3:cjc039_2456"
    INDEX 01 00:55:63
  TRACK 33 AUDIO
    TITLE "0:"
    INDEX 01 00:59:69
  TRACK 34 AUDIO
    TITLE "2:cjc039_2457"
    INDEX 01 01:01:46
  TRACK 35 AUDIO
    TITLE "0:"
    INDEX 01 01:02:48
  TRACK 36 AUDIO
    TITLE "3:cjc039_2458"
    INDEX 01 01:03:22
  TRACK 37 AUDIO
    TITLE "0:"
    INDEX 01 01:06:42
  TRACK 38 AUDIO
    TITLE "2:cjc039_2459"
    INDEX 01 01:08:21
  TRACK 39 AUDIO
    TITLE "0:"
    INDEX 01 01:09:65
  TRACK 40 AUDIO
    TITLE "3:cjc039_2460"
    INDEX 01 01:10:39
  TRACK 41 AUDIO
    TITLE "0:"
    INDEX 01 01:14:02
  TRACK 42 AUDIO
    TITLE "2:cjc039_2461"
    INDEX 01 01:15:54
  TRACK 43 AUDIO
    TITLE "0:"
    INDEX 01 01:16:56
  TRACK 44 AUDIO
    TITLE "3:cjc039_2462"
    INDEX 01 01:17:35
  TRACK 45 AUDIO
    TITLE "0:"
    INDEX 01 01:21:02
  TRACK 46 AUDIO
    TITLE "2:cjc039_2463"
    INDEX 01 01:22:54
  TRACK 47 AUDIO
    TITLE "0:"
    INDEX 01 01:24:20
  TRACK 48 AUDIO
    TITLE "3:cjc039_2464"
    INDEX 01 01:24:73
  TRACK 49 AUDIO
    TITLE "0:"
    INDEX 01 01:28:72
  TRACK 50 AUDIO
    TITLE "2:cjc039_2465"
    INDEX 01 01:30:48
  TRACK 51 AUDIO
    TITLE "0:"
    INDEX 01 01:31:69
  TRACK 52 AUDIO
    TITLE "3:cjc039_2466"
    INDEX 01 01:32:51
  TRACK 53 AUDIO
    TITLE "0:"
    INDEX 01 01:35:71
  TRACK 54 AUDIO
    TITLE "2:cjc039_2467"
    INDEX 01 01:37:48
  TRACK 55 AUDIO
    TITLE "0:"
    INDEX 01 01:38:59
  TRACK 56 AUDIO
    TITLE "3:cjc039_2468"
    INDEX 01 01:39:39
  TRACK 57 AUDIO
    TITLE "0:"
    INDEX 01 01:42:69
  TRACK 58 AUDIO
    TITLE "2:cjc039_2469"
    INDEX 01 01:44:44
  TRACK 59 AUDIO
    TITLE "0:"
    INDEX 01 01:45:63
  TRACK 60 AUDIO
    TITLE "3:cjc039_2470"
    INDEX 01 01:46:39
  TRACK 61 AUDIO
    TITLE "0:"
    INDEX 01 01:49:71
  TRACK 62 AUDIO
    TITLE "2:cjc039_2471"
    INDEX 01 01:51:44
  TRACK 63 AUDIO
    TITLE "0:"
    INDEX 01 01:52:53
  TRACK 64 AUDIO
    TITLE "3:cjc039_2472"
    INDEX 01 01:53:31
  TRACK 65 AUDIO
    TITLE "0:"
    INDEX 01 01:57:68
  TRACK 66 AUDIO
    TITLE "2:cjc039_2473"
    INDEX 01 01:59:46
  TRACK 67 AUDIO
    TITLE "0:"
    INDEX 01 02:00:71
  TRACK 68 AUDIO
    TITLE "3:cjc039_2474"
    INDEX 01 02:01:48
  TRACK 69 AUDIO
    TITLE "0:"
    INDEX 01 02:06:12
  TRACK 70 AUDIO
    TITLE "2:cjc039_2475"
    INDEX 01 02:07:61
  TRACK 71 AUDIO
    TITLE "0:"
    INDEX 01 02:09:26
  TRACK 72 AUDIO
    TITLE "3:cjc039_2476"
    INDEX 01 02:10:04
  TRACK 73 AUDIO
    TITLE "0:"
    INDEX 01 02:14:65
  TRACK 74 AUDIO
    TITLE "2:cjc039_2477"
    INDEX 01 02:16:46
  TRACK 75 AUDIO
    TITLE "0:"
    INDEX 01 02:17:51
  TRACK 76 AUDIO
    TITLE "3:cjc039_2478"
    INDEX 01 02:18:27
  TRACK 77 AUDIO
    TITLE "0:"
    INDEX 01 02:22:29
  TRACK 78 AUDIO
    TITLE "2:cjc039_2479"
    INDEX 01 02:24:02
  TRACK 79 AUDIO
    TITLE "0:"
    INDEX 01 02:25:35
  TRACK 80 AUDIO
    TITLE "3:cjc039_2480"
    INDEX 01 02:26:17
  TRACK 81 AUDIO
    TITLE "0:"
    INDEX 01 02:30:29
